<svg width="49" height="31" viewBox="0 0 49 31" fill="none" xmlns="http://www.w3.org/2000/svg">
<path fill-rule="evenodd" clip-rule="evenodd" d="M0.220337 1.48254C0.220337 0.930259 0.668052 0.482544 1.22034 0.482544H47.7796C48.3319 0.482544 48.7796 0.930259 48.7796 1.48254C48.7796 2.03483 48.3319 2.48254 47.7796 2.48254H1.22034C0.668052 2.48254 0.220337 2.03483 0.220337 1.48254ZM0.220337 15.3621C0.220337 14.8098 0.668052 14.3621 1.22034 14.3621H47.7796C48.3319 14.3621 48.7796 14.8098 48.7796 15.3621C48.7796 15.9144 48.3319 16.3621 47.7796 16.3621H1.22034C0.668052 16.3621 0.220337 15.9144 0.220337 15.3621ZM1.22034 28.2417C0.668052 28.2417 0.220337 28.6894 0.220337 29.2417C0.220337 29.794 0.668052 30.2417 1.22034 30.2417H47.7796C48.3319 30.2417 48.7796 29.794 48.7796 29.2417C48.7796 28.6894 48.3319 28.2417 47.7796 28.2417H1.22034Z" fill="#444444"/>
</svg>
